<svg width="43" height="43" viewBox="0 0 43 43" fill="none" xmlns="http://www.w3.org/2000/svg">
<g filter="url(#filter0_d_6140_7351)">
<rect x="1.5" width="40" height="40" rx="20" fill="#FAFAFA"/>
<path d="M25.0897 15.1863L22.9307 18.2726C22.9307 18.2726 22.3516 16.296 20.307 16.296C18.1633 16.296 16.7511 17.912 16.7511 17.912C15.3262 19.3797 14.9961 20.8909 14.9961 20.8909C14.3687 23.9593 16.9873 24.5729 16.9873 24.5729C16.9873 24.5729 17.8637 24.8874 19.1615 24.5499C19.1615 24.5499 21.4119 23.8927 22.527 22.3534C22.527 22.3534 22.654 24.174 24.3456 24.5422C24.3456 24.5422 24.7698 24.6266 25.1888 24.5422C25.1888 24.5422 25.867 24.3836 26.4282 23.7418C26.4282 23.7418 26.4866 23.66 26.3394 23.6882C26.192 23.7188 24.7265 24.0026 24.2262 22.5068L23.6115 20.6069C23.741 20.3947 23.8706 20.1824 24.0001 19.9702C24.1779 19.671 24.3582 19.377 24.5411 19.083C24.7876 18.6739 27.0506 14.9279 27.2615 14.6671C27.4545 14.4319 27.7009 14.1992 27.9472 14.0151C28.0361 13.9486 28.1327 13.8872 28.2342 13.8387C28.2849 13.8182 28.4145 13.7415 28.4806 13.7415C27.0074 13.422 26.0675 13.8515 25.0897 15.1863ZM20.1368 17.2038C21.6252 17.1655 21.7624 20.331 21.7624 20.331C21.7624 20.331 19.3291 24.2687 17.4927 23.5426C15.6589 22.8139 17.6731 19.2009 17.6731 19.2009C17.6731 19.2009 18.6509 17.2421 20.1368 17.2038Z" fill="#FFB000"/>
<path d="M13.2905 25.9356C13.5247 26.1985 13.5031 26.6022 13.2434 26.838C13.1209 26.9478 12.9701 27.002 12.818 27.002C12.6444 27.002 12.4708 26.9315 12.3456 26.7906L6.67261 20.4413L6.66319 20.4305C6.64973 20.4156 6.63627 20.3993 6.62551 20.3831C6.61339 20.3682 6.60263 20.3519 6.5932 20.3356C6.59186 20.3343 6.59186 20.3329 6.59186 20.3316C6.58244 20.318 6.57436 20.3031 6.56763 20.2882C6.56494 20.2855 6.56359 20.2814 6.56225 20.2787C6.55552 20.2625 6.54744 20.2462 6.54206 20.2299C6.54072 20.2286 6.54071 20.2272 6.53937 20.2245C6.53398 20.2083 6.5286 20.192 6.52456 20.1744C6.52322 20.1717 6.52187 20.169 6.52187 20.1663C6.51783 20.15 6.5138 20.1337 6.5111 20.1161C6.50707 20.0972 6.50437 20.0782 6.50303 20.0592C6.49899 20.0213 6.49899 19.9847 6.50303 19.9468C6.50437 19.9278 6.50707 19.9088 6.5111 19.8899C6.5138 19.8722 6.51783 19.8546 6.52187 19.8384C6.52187 19.8357 6.52187 19.8329 6.52456 19.8302C6.5286 19.8153 6.53264 19.7991 6.53802 19.7842C6.53937 19.7801 6.54071 19.7747 6.54341 19.7706C6.55014 19.7557 6.55686 19.7395 6.56359 19.7246C6.57167 19.7069 6.58109 19.6907 6.59186 19.6731C6.59051 19.6717 6.59186 19.6717 6.5932 19.6704C6.61339 19.6378 6.63627 19.6053 6.66319 19.5755L6.68203 19.5538L12.3456 13.2141C12.5812 12.9512 12.9823 12.9295 13.2434 13.1666C13.5031 13.4024 13.5247 13.8062 13.2905 14.069L7.98892 20.0023L13.2905 25.9356Z" fill="#1994FF"/>
<path d="M6.68248 19.5533L6.66364 19.5749C6.63672 19.6047 6.61384 19.6372 6.59365 19.6697C6.61653 19.6277 6.64748 19.5898 6.68248 19.5533Z" fill="white"/>
<path d="M36.8759 19.9449C36.8799 19.9828 36.8799 20.0208 36.8759 20.0587C36.8745 20.0777 36.8719 20.0966 36.8678 20.1156C36.8651 20.1332 36.8611 20.1495 36.857 20.1657C36.857 20.1684 36.857 20.1712 36.8544 20.1739C36.8503 20.1901 36.8463 20.205 36.8409 20.2199C36.8396 20.2254 36.8369 20.2308 36.8342 20.2362C36.8301 20.2484 36.8247 20.2606 36.8194 20.2714C36.8167 20.2795 36.8126 20.2863 36.8086 20.2945C36.8019 20.3066 36.7951 20.3188 36.7871 20.331C36.7884 20.3324 36.7871 20.3337 36.7857 20.3351C36.7763 20.3514 36.7655 20.3676 36.7534 20.3825C36.7426 20.3988 36.7292 20.415 36.7157 20.4299C36.713 20.434 36.709 20.4367 36.7063 20.4408L31.0333 26.7901C30.9081 26.931 30.7345 27.0014 30.5609 27.0014C30.4088 27.0014 30.2581 26.9472 30.1356 26.8375C29.8758 26.6017 29.8543 26.1979 30.0885 25.9351L35.39 20.0018L30.0885 14.0685C29.8543 13.8056 29.8758 13.4018 30.1356 13.1661C30.3967 12.9303 30.7978 12.9507 31.0333 13.2135L36.7063 19.5628L36.7157 19.5736C36.7292 19.5885 36.7426 19.6048 36.7534 19.621C36.7655 19.6359 36.7763 19.6522 36.7857 19.6685C36.7871 19.6698 36.7871 19.6712 36.7871 19.6725C36.7951 19.6847 36.8019 19.6969 36.8086 19.7105C36.8126 19.7172 36.8167 19.7254 36.8194 19.7322C36.8247 19.743 36.8301 19.7552 36.8342 19.7674C36.8369 19.7728 36.8382 19.7782 36.8409 19.7836C36.8463 19.7985 36.8503 19.8134 36.8544 19.8297C36.8557 19.8324 36.857 19.8351 36.857 19.8378C36.8611 19.8541 36.8651 19.8704 36.8678 19.888C36.8719 19.9069 36.8745 19.9259 36.8759 19.9449Z" fill="#1994FF"/>
</g>
<defs>
<filter id="filter0_d_6140_7351" x="0.5" y="0" width="42" height="43" filterUnits="userSpaceOnUse" color-interpolation-filters="sRGB">
<feFlood flood-opacity="0" result="BackgroundImageFix"/>
<feColorMatrix in="SourceAlpha" type="matrix" values="0 0 0 0 0 0 0 0 0 0 0 0 0 0 0 0 0 0 127 0" result="hardAlpha"/>
<feMorphology radius="1.5" operator="erode" in="SourceAlpha" result="effect1_dropShadow_6140_7351"/>
<feOffset dy="2"/>
<feGaussianBlur stdDeviation="1.25"/>
<feComposite in2="hardAlpha" operator="out"/>
<feColorMatrix type="matrix" values="0 0 0 0 0 0 0 0 0 0 0 0 0 0 0 0 0 0 0.1 0"/>
<feBlend mode="normal" in2="BackgroundImageFix" result="effect1_dropShadow_6140_7351"/>
<feBlend mode="normal" in="SourceGraphic" in2="effect1_dropShadow_6140_7351" result="shape"/>
</filter>
</defs>
</svg>
