<svg width="36" height="27" viewBox="0 0 36 27" fill="none" xmlns="http://www.w3.org/2000/svg">
<path fill-rule="evenodd" clip-rule="evenodd" d="M19.0854 6.78849C22.1725 5.04726 22.2903 2.42702 22.0295 1.42182L23.0642 1.14844C23.4427 2.56581 23.182 5.7202 19.5986 7.72219L19.0854 6.78849Z" fill="#1994FF"/>
<path fill-rule="evenodd" clip-rule="evenodd" d="M19.9265 11.907L20.0905 11.3981L20.2546 10.8892H20.2798L20.3471 10.9354L20.5658 11.0153C20.7509 11.0868 21.0158 11.1962 21.3439 11.3434C22.2219 11.7389 23.0659 12.2059 23.8674 12.7397C26.354 14.3259 28.3414 16.583 29.6 19.2504L28.6242 19.671C27.45 17.1918 25.6019 15.093 23.2912 13.6146C22.5326 13.113 21.7352 12.6728 20.9065 12.2981C20.6037 12.1593 20.3555 12.0626 20.1873 11.9953L19.998 11.928H19.9517L19.9265 11.907Z" fill="#1994FF"/>
<path fill-rule="evenodd" clip-rule="evenodd" d="M18.2684 15.8771C17.8543 16.3312 17.2794 16.6058 16.666 16.6426C15.9624 16.7031 15.2562 16.5613 14.6305 16.2339C14.0048 15.9065 13.4857 15.4071 13.1343 14.7946C12.7829 14.182 12.6139 13.4818 12.6471 12.7765C12.6804 12.0711 12.9145 11.3899 13.3219 10.8131C13.7293 10.2363 14.2931 9.78793 14.9468 9.52081C15.6005 9.2537 16.3169 9.17894 17.0117 9.30536C17.7065 9.43177 18.3506 9.75409 18.8683 10.2343C19.3861 10.7146 19.7558 11.3328 19.9339 12.0161L21.1746 12.3947C21.0473 11.3221 20.5654 10.3228 19.8056 9.55512C19.0458 8.78747 18.0514 8.29547 16.9802 8.15713C15.909 8.0188 14.8223 8.24204 13.8923 8.79147C12.9624 9.34089 12.2426 10.1851 11.8469 11.1901C11.4512 12.1951 11.4024 13.3034 11.7081 14.3394C12.0139 15.3753 12.6568 16.2795 13.5348 16.9085C14.4128 17.5376 15.4757 17.8555 16.5549 17.8119C17.6341 17.7683 18.6679 17.3657 19.4923 16.6678L18.2684 15.8771Z" fill="#1994FF"/>
<path fill-rule="evenodd" clip-rule="evenodd" d="M21.0873 18.4806C20.1187 17.7986 19.0543 17.2642 17.9287 16.895L18.2694 15.8813C19.5026 16.282 20.6671 16.8692 21.7224 17.6226C22.9337 18.5184 24.0356 19.8222 24.1113 21.6013L23.043 21.6434C22.9884 20.3269 22.1724 19.2881 21.0873 18.4806Z" fill="#1994FF"/>
<path d="M20.7249 24.8399C20.6985 24.5466 20.5743 24.2707 20.3722 24.0566C20.17 23.8425 19.9017 23.7026 19.6105 23.6594C19.3192 23.6162 19.0219 23.6722 18.7663 23.8184C18.5107 23.9646 18.3118 24.1926 18.2014 24.4655C13.4404 25.374 10.1598 23.2963 8.21248 21.6686C8.23634 21.5539 8.24343 21.4363 8.23351 21.3196C8.21183 21.0601 8.1137 20.813 7.95155 20.6093C7.7894 20.4056 7.5705 20.2546 7.32253 20.1753C7.07456 20.096 6.80865 20.0921 6.55842 20.1639C6.30819 20.2357 6.08487 20.3801 5.91671 20.5789C5.74855 20.7776 5.64309 21.0218 5.61366 21.2804C5.58424 21.5391 5.63217 21.8007 5.75139 22.0321C5.87062 22.2635 6.05579 22.4544 6.28349 22.5806C6.51119 22.7068 6.7712 22.7627 7.03064 22.7411C7.1656 22.7287 7.29767 22.6946 7.42178 22.6402C9.49527 24.373 13.1207 26.6736 18.357 25.7063C18.5197 25.9409 18.7551 26.1154 19.0269 26.2029C19.2987 26.2903 19.5917 26.2858 19.8607 26.1901C20.1297 26.0944 20.3597 25.9127 20.5151 25.6733C20.6706 25.4338 20.7428 25.1497 20.7207 24.8651L20.7249 24.8399Z" fill="#FFB000"/>
<path d="M28.3764 22.2114C28.3455 21.8498 28.1851 21.5116 27.9247 21.2589C27.6643 21.0062 27.3213 20.856 26.959 20.8361C26.3744 17.9004 24.1327 15.9825 22.055 14.788C21.1233 14.2595 20.1465 13.8147 19.1361 13.459C18.745 13.3202 18.4169 13.2235 18.1898 13.1562L18.0847 13.1267C18.1015 12.987 18.1015 12.8458 18.0847 12.7062C18.0477 12.2736 17.8602 11.8678 17.5548 11.5592C17.2494 11.2507 16.8455 11.0591 16.4133 11.0177C15.9812 10.9764 15.5483 11.0879 15.1899 11.3329C14.8315 11.5778 14.5704 11.9408 14.4521 12.3584C14.3337 12.7761 14.3657 13.2221 14.5423 13.6186C14.7189 14.0152 15.029 14.3372 15.4186 14.5287C15.8082 14.7202 16.2526 14.7689 16.6744 14.6664C17.0963 14.564 17.4688 14.3168 17.7272 13.9679L17.9333 14.0226C18.1478 14.0857 18.4548 14.1782 18.8249 14.3086C19.7882 14.6432 20.72 15.0626 21.6092 15.5619C23.6027 16.7017 25.5921 18.4682 26.0926 21.0295C25.9942 21.0913 25.9026 21.1631 25.8192 21.244L25.7477 21.3155L25.6973 21.3744C25.479 21.6366 25.3595 21.967 25.3595 22.3081C25.3595 22.6493 25.479 22.9796 25.6973 23.2418C25.8962 23.4994 26.1732 23.6856 26.4868 23.7726C26.8004 23.8595 27.1337 23.8425 27.4369 23.7241C27.74 23.6057 27.9966 23.3922 28.1683 23.1157C28.3399 22.8392 28.4174 22.5146 28.389 22.1903L28.3764 22.2114ZM16.3603 13.9973C16.1395 14.0123 15.9192 13.9617 15.7271 13.8519C15.535 13.7421 15.3796 13.5779 15.2805 13.3801C15.1813 13.1823 15.1428 12.9596 15.1698 12.74C15.1968 12.5203 15.2881 12.3136 15.4322 12.1457C15.5763 11.9777 15.7668 11.8561 15.9798 11.7961C16.1928 11.7361 16.4187 11.7403 16.6293 11.8083C16.8399 11.8762 17.0257 12.0049 17.1634 12.1781C17.3011 12.3513 17.3846 12.5614 17.4033 12.7819C17.4165 12.9305 17.3999 13.0803 17.3543 13.2225C17.3087 13.3646 17.2352 13.4962 17.138 13.6094C17.0408 13.7227 16.9219 13.8154 16.7883 13.882C16.6548 13.9486 16.5092 13.9878 16.3603 13.9973Z" fill="#FFB000"/>
<path d="M22.2179 10.3462L22.1379 10.3252L22.2179 10.3462Z" fill="#1994FF"/>
<path d="M22.8192 7.99113C22.9128 7.98192 23.0072 7.99194 23.0968 8.02057C23.5728 8.14327 24.0362 8.31085 24.4805 8.52107C25.9613 9.26827 27.3028 10.2641 28.4466 11.4652C29.6882 12.7024 30.7513 14.1066 31.6052 15.6374L32.5431 15.1411C31.6382 13.5071 30.5053 12.0102 29.1785 10.6955C27.5887 9.08465 25.5236 7.52428 23.2903 6.9649C23.0119 6.8702 22.7145 6.84561 22.4244 6.89332C22.1343 6.94104 21.8604 7.05957 21.6271 7.23843C21.3937 7.41729 21.2081 7.65095 21.0867 7.9187C20.9652 8.18645 20.9117 8.48003 20.9308 8.77342C20.9521 9.04404 21.0347 9.30627 21.1724 9.54019C21.3102 9.77411 21.4994 9.9736 21.7257 10.1235C21.848 10.2043 21.9793 10.2706 22.1168 10.3212L22.1968 10.3422C23.9884 10.9268 25.7044 12.218 27.126 13.6606C28.3657 14.8965 29.4248 16.3011 30.272 17.8328L31.2814 17.3576C30.3786 15.7222 29.2454 14.225 27.9167 12.912C26.7644 11.7105 25.4285 10.6997 23.959 9.91741C23.5918 9.72786 23.214 9.55935 22.8276 9.41271L22.5374 9.32439C22.4028 9.25134 22.2953 9.13674 22.2311 8.99768C22.1669 8.85861 22.1493 8.70251 22.1809 8.55264C22.2126 8.40276 22.2919 8.26713 22.4069 8.16595C22.5219 8.06477 22.6665 8.00345 22.8192 7.99113Z" fill="#1994FF"/>
<path d="M31.7605 11.8354C31.7857 11.8859 31.811 11.9364 31.8404 11.9869L31.7605 11.8354Z" fill="#9CD1FF"/>
<path d="M34.9905 11.3179C35.0245 11.0195 34.9781 10.7174 34.8559 10.4431C34.8559 10.3884 34.8054 10.3421 34.7844 10.2875C33.9606 8.52993 32.7362 6.99004 31.2094 5.79141C30.3719 5.11107 29.472 4.51118 28.5219 3.99972C28.5505 3.86147 28.5604 3.72001 28.5513 3.57913C28.527 3.28056 28.4147 2.99591 28.2285 2.7612C28.0423 2.5265 27.7908 2.35229 27.5056 2.26062C27.2204 2.16895 26.9144 2.16394 26.6263 2.24623C26.3383 2.32851 26.0811 2.49439 25.8874 2.72287C25.6937 2.95135 25.572 3.23217 25.538 3.52979C25.5039 3.82741 25.5588 4.12845 25.6959 4.39483C25.8329 4.6612 26.0459 4.88093 26.3079 5.02622C26.5699 5.1715 26.8691 5.23581 27.1676 5.211C27.4531 5.18938 27.7262 5.08567 27.9541 4.91239C28.8675 5.39706 29.7311 5.97041 30.5323 6.62417C31.5285 7.41944 32.3954 8.36436 33.1021 9.42527C33.3731 9.84483 33.6081 10.2866 33.8044 10.7459V10.7753C33.8581 10.8803 33.8772 10.9995 33.8591 11.116C33.8492 11.1978 33.8233 11.2768 33.7829 11.3485C33.7424 11.4203 33.6882 11.4833 33.6234 11.5341C33.5585 11.5849 33.4843 11.6224 33.405 11.6445C33.3256 11.6666 33.2427 11.6728 33.1609 11.6628C33.0679 11.6482 32.9792 11.6131 32.9013 11.56C32.8235 11.5069 32.7585 11.4371 32.7109 11.3558C32.4785 10.9308 32.2157 10.5231 31.9244 10.1361C31.1171 9.08607 30.1623 8.15821 29.0897 7.38122C27.7514 6.38465 26.2751 5.58839 24.7072 5.01753L24.3623 6.03114C25.8254 6.56856 27.2036 7.31361 28.4546 8.24342C29.8 9.19947 30.928 10.4293 31.7646 11.852L31.8445 12.0035C31.9711 12.2092 32.1386 12.3867 32.3366 12.525C32.5611 12.6835 32.821 12.7846 33.0937 12.8194C33.5442 12.8715 33.9971 12.7426 34.3527 12.4611C34.7084 12.1796 34.9378 11.7684 34.9905 11.3179ZM27.1129 4.50021C26.9555 4.51328 26.7978 4.47917 26.6599 4.40223C26.522 4.32529 26.4101 4.20901 26.3385 4.06822C26.267 3.92742 26.239 3.76851 26.2581 3.61174C26.2772 3.45496 26.3426 3.30745 26.446 3.188C26.5493 3.06855 26.6858 2.98259 26.8382 2.94108C26.9906 2.89956 27.1519 2.90439 27.3015 2.95493C27.4512 3.00547 27.5823 3.09943 27.6783 3.22484C27.7743 3.35025 27.8308 3.50141 27.8405 3.65904C27.8534 3.86655 27.7844 4.07083 27.6483 4.22807C27.5123 4.38531 27.3201 4.48301 27.1129 4.50021Z" fill="#FFB000"/>
<path d="M15.5105 4.25615C15.7574 4.13559 15.9761 3.96425 16.1522 3.75334C16.3283 3.54243 16.4579 3.2967 16.5325 3.03225C16.5876 2.82678 16.6075 2.61348 16.5914 2.40137C16.5986 2.77991 16.5015 3.15314 16.3109 3.48025C16.1203 3.80737 15.8434 4.07578 15.5105 4.25615Z" fill="#1994FF"/>
<path d="M16.5906 2.4016C16.5969 2.77997 16.4994 3.15282 16.3089 3.47977C16.1184 3.80672 15.842 4.07529 15.5097 4.25639C15.4049 4.31162 15.2951 4.35669 15.1817 4.39097L14.9714 4.46247H14.8915C9.38179 6.21631 7.87189 9.30761 7.5186 10.7586L6.30311 10.4642C6.72369 8.74824 8.27986 5.77049 12.9862 3.84842C13.132 4.00546 13.3025 4.13758 13.4909 4.23956C13.3041 4.13514 13.1339 4.0033 12.9862 3.84842C13.5798 3.59655 14.1863 3.37614 14.8031 3.1881C14.9636 3.14838 15.1095 3.06376 15.2237 2.94416C15.3261 2.83279 15.3965 2.69587 15.4276 2.54784C15.4587 2.39981 15.4493 2.24613 15.4004 2.10299C15.3425 1.9403 15.236 1.79935 15.0953 1.69928C14.9546 1.59921 14.7865 1.54486 14.6139 1.54361L14.1134 1.65296C14.0263 1.66895 13.9405 1.69144 13.8568 1.72026C13.4362 1.86746 12.9441 2.0357 12.4352 2.23758C9.03691 3.57924 4.78479 6.45605 3.01413 13.1349C3.17461 13.3207 3.27441 13.5511 3.30013 13.7953C3.32187 14.0576 3.25379 14.3196 3.10705 14.5381C2.96032 14.7567 2.74365 14.9189 2.4926 14.9981C2.34789 15.0429 2.19579 15.0587 2.04498 15.0446C1.89417 15.0306 1.7476 14.987 1.61364 14.9163C1.47968 14.8456 1.36095 14.7492 1.26425 14.6326C1.16754 14.5161 1.09473 14.3816 1.05 14.2369C1.00526 14.0922 0.98946 13.9401 1.0035 13.7892C1.01755 13.6384 1.06116 13.4919 1.13185 13.3579C1.20254 13.2239 1.29892 13.1052 1.4155 13.0085C1.53207 12.9118 1.66655 12.839 1.81125 12.7943C4.00671 4.42883 9.93276 1.58567 13.6802 0.471119C13.7548 0.44986 13.8307 0.433008 13.9073 0.420648C14.3772 0.282646 14.8806 0.313012 15.3306 0.506507C15.7805 0.700002 16.1488 1.04449 16.3719 1.48052C16.5153 1.76642 16.5902 2.08177 16.5906 2.4016Z" fill="#1994FF"/>
<path d="M13.4915 4.23978C13.3031 4.1378 13.1326 4.00567 12.9868 3.84863C13.1346 4.00351 13.3047 4.13536 13.4915 4.23978Z" fill="#FFB000"/>
<path d="M15.1817 4.39093L14.9714 4.46243C15.1389 4.42607 15.3013 4.36958 15.4551 4.2942L15.5098 4.25635C15.405 4.31158 15.2951 4.35665 15.1817 4.39093Z" fill="#1994FF"/>
<path d="M13.4915 4.23978C13.3031 4.1378 13.1326 4.00567 12.9868 3.84863C13.1346 4.00351 13.3047 4.13536 13.4915 4.23978Z" fill="#FFB000"/>
<path fill-rule="evenodd" clip-rule="evenodd" d="M19.9928 21.9251C20.1642 21.6487 20.2636 21.3337 20.282 21.009C20.3003 20.6843 20.2371 20.3601 20.098 20.0661L20.0349 19.9526C19.8952 19.7268 19.7115 19.5316 19.4947 19.3784C19.2779 19.2252 19.0325 19.1172 18.7731 19.0609C18.3061 18.9473 17.8186 18.9473 17.3515 19.0609C16.0898 19.3595 14.1803 19.0189 12.5779 18.0515C10.9755 17.0842 9.84409 15.6079 9.85671 13.7195C9.84013 12.8335 9.98258 11.9518 10.2773 11.1161C10.4447 10.7033 10.6562 10.3099 10.9082 9.94263C11.045 9.98022 11.1874 9.99304 11.3288 9.98049C11.6942 9.94628 12.0315 9.76955 12.2676 9.48855C12.5038 9.20755 12.6198 8.84488 12.5905 8.479C12.5961 8.41948 12.5844 8.35961 12.5569 8.30656C14.0492 7.27923 15.7044 6.51138 17.4525 6.0354C21.0947 4.98814 21.3387 1.34167 19.7489 0L18.9414 0.954728C19.6648 1.56458 19.9297 4.025 17.116 4.84094C15.2069 5.35815 13.4023 6.20351 11.783 7.33921C11.5691 7.23898 11.333 7.19553 11.0974 7.21304C10.7316 7.24619 10.3936 7.42262 10.1573 7.70387C9.92092 7.98513 9.80533 8.34841 9.83568 8.71453C9.85215 8.85964 9.89044 9.00143 9.94924 9.13511L9.91559 9.18558C9.59434 9.64521 9.32758 10.1406 9.12069 10.6618C8.77233 11.6371 8.60278 12.6672 8.62019 13.7027C8.59916 16.1715 10.1217 18.0095 11.9428 19.1114C12.4748 19.4335 13.0385 19.6999 13.6252 19.9063C14.1935 20.1071 14.7813 20.2481 15.379 20.3269C15.9362 20.4074 16.5013 20.4187 17.0613 20.3605C17.3978 20.3227 17.7259 20.2175 18.0665 20.2049C18.3113 20.1675 18.5613 20.2214 18.7689 20.3563C18.9049 20.4768 18.9875 20.6464 18.9986 20.8278C19.0096 21.0092 18.9482 21.1876 18.8278 21.3237C18.7731 21.3856 18.7076 21.4369 18.6343 21.4751C18.4434 21.5682 18.239 21.6306 18.0287 21.6601C18.1337 21.6853 18.2433 21.6853 18.3483 21.6601C18.2088 21.6771 18.0683 21.6855 17.9277 21.6854L17.545 21.7611C17.2787 21.7983 17.0105 21.8208 16.7417 21.8284C16.1862 21.8404 15.6309 21.7953 15.0846 21.6938C14.5116 21.5881 13.9487 21.4333 13.4022 21.2311C12.8438 21.0209 12.3024 20.7678 11.783 20.4741C11.345 20.2207 10.9236 19.9397 10.5212 19.6329C8.09025 17.816 6.58035 15.242 6.98411 12.9036L5.7518 12.6933C5.23448 15.7173 7.16917 18.7034 9.7768 20.6507C10.5428 21.2231 11.3693 21.7097 12.2414 22.1018C13.1083 22.4949 14.0211 22.7775 14.9584 22.9429C15.9098 23.1181 16.8842 23.1295 17.8394 22.9766C18.0455 22.9429 18.26 22.9009 18.4493 22.8504C18.8246 22.7782 19.1828 22.6355 19.5049 22.4298C19.7001 22.2964 19.8661 22.1247 19.9928 21.9251Z" fill="#1994FF"/>
</svg>
